<?xml version="1.0" encoding="UTF-8"?>
<!DOCTYPE svg PUBLIC "-//W3C//DTD SVG 1.1//EN" "http://www.w3.org/Graphics/SVG/1.1/DTD/svg11.dtd">
<svg xmlns="http://www.w3.org/2000/svg" version="1.1" width="4594px" height="1086px" style="shape-rendering:geometricPrecision; text-rendering:geometricPrecision; image-rendering:optimizeQuality; fill-rule:evenodd; clip-rule:evenodd" xmlns:xlink="http://www.w3.org/1999/xlink">
<g><path style="opacity:1" fill="#fe4b13" d="M 2676.5,-0.5 C 2716.5,-0.5 2756.5,-0.5 2796.5,-0.5C 2873.63,2.28082 2950.3,10.6142 3026.5,24.5C 3028.28,26.3435 3030.61,27.0102 3033.5,26.5C 3107.73,40.0242 3179.06,62.3575 3247.5,93.5C 3249.18,95.8337 3251.51,96.8337 3254.5,96.5C 3312.53,122.283 3365.2,155.95 3412.5,197.5C 3413.79,199.328 3414.79,201.328 3415.5,203.5C 3418.91,203.384 3420.24,205.05 3419.5,208.5C 3421.17,208.5 3422.83,208.5 3424.5,208.5C 3424.82,210.048 3425.82,210.715 3427.5,210.5C 3506.43,284.629 3558.93,374.629 3585,480.5C 3590.23,502.995 3594.57,525.661 3598,548.5C 3599.37,546.959 3600.87,545.625 3602.5,544.5C 3604.12,543.962 3605.78,543.629 3607.5,543.5C 3607.17,540.5 3608.5,539.167 3611.5,539.5C 3611.63,537.784 3611.96,536.117 3612.5,534.5C 3697.91,451.41 3792.91,381.41 3897.5,324.5C 3901.41,325.997 3905.41,327.664 3909.5,329.5C 3912.84,327.514 3914.18,324.514 3913.5,320.5C 3915.5,320.5 3917.5,320.5 3919.5,320.5C 3919.5,322.167 3919.5,323.833 3919.5,325.5C 3920.83,325.5 3922.17,325.5 3923.5,325.5C 3923.5,323.5 3923.5,321.5 3923.5,319.5C 3928.83,319.5 3934.17,319.5 3939.5,319.5C 3939.5,318.167 3939.5,316.833 3939.5,315.5C 3938.02,315.762 3936.69,315.429 3935.5,314.5C 3937.01,313.253 3938.51,313.253 3940,314.5C 3941.21,313.929 3942.37,313.262 3943.5,312.5C 3945.02,309.852 3946.02,307.018 3946.5,304C 3950.46,303.475 3952.13,305.309 3951.5,309.5C 3952.83,309.5 3954.17,309.5 3955.5,309.5C 3955.01,306.245 3956.01,303.578 3958.5,301.5C 3959.17,302.833 3959.83,304.167 3960.5,305.5C 3966.61,303.599 3972.95,302.932 3979.5,303.5C 3979.5,300.833 3979.5,298.167 3979.5,295.5C 3982.83,295.5 3986.17,295.5 3989.5,295.5C 3989.34,293.143 3989.5,290.81 3990,288.5C 3991.01,287.663 3992.18,287.33 3993.5,287.5C 3993.5,286.167 3993.5,284.833 3993.5,283.5C 3995.5,283.5 3997.5,283.5 3999.5,283.5C 3999.5,286.833 3999.5,290.167 3999.5,293.5C 4001.49,293.328 4003.16,293.995 4004.5,295.5C 4005.48,292.914 4005.81,290.247 4005.5,287.5C 4006.83,287.5 4008.17,287.5 4009.5,287.5C 4009.33,285.508 4010,283.842 4011.5,282.5C 4019.96,279.92 4028.63,278.92 4037.5,279.5C 4037.77,276.881 4037.44,274.381 4036.5,272C 4037.17,271.333 4037.83,270.667 4038.5,270C 4038.74,268.155 4038.74,266.321 4038.5,264.5C 4117.48,236.717 4198.82,225.884 4282.5,232C 4323.26,235.439 4362.26,245.272 4399.5,261.5C 4401.09,263.821 4403.42,264.821 4406.5,264.5C 4490.49,304.103 4546.99,368.103 4576,456.5C 4585.52,488.314 4591.36,520.648 4593.5,553.5C 4593.5,568.5 4593.5,583.5 4593.5,598.5C 4592.52,606.999 4591.68,615.666 4591,624.5C 4589.86,627.915 4588.19,628.249 4586,625.5C 4541.8,497.465 4453.63,418.299 4321.5,388C 4246.77,372.905 4171.77,371.571 4096.5,384C 4030.16,394.584 3965.5,411.417 3902.5,434.5C 3900.47,434.338 3898.47,434.505 3896.5,435C 3895.75,435.671 3895.41,436.504 3895.5,437.5C 3884.32,442.228 3872.98,446.561 3861.5,450.5C 3858.69,450.025 3856.69,451.025 3855.5,453.5C 3750.48,497.468 3655.15,556.301 3569.5,630C 3566.21,630.936 3563.21,630.436 3560.5,628.5C 3544.06,598.422 3526.06,569.422 3506.5,541.5C 3506.71,539.821 3506.05,538.821 3504.5,538.5C 3466.52,485.842 3422.52,438.509 3372.5,396.5C 3372.62,391.615 3370.28,389.615 3365.5,390.5C 3269.67,314.415 3162.34,259.582 3043.5,226C 2920.48,192.187 2795.14,174.521 2667.5,173C 2482.75,170.453 2300.09,188.786 2119.5,228C 1932.56,268.76 1750.22,324.427 1572.5,395C 1434.41,449.872 1299.08,511.039 1166.5,578.5C 1163.5,577.072 1160.66,577.405 1158,579.5C 1157.64,577.579 1156.81,575.912 1155.5,574.5C 1156.17,573.833 1156.83,573.167 1157.5,572.5C 1156.36,572.036 1155.36,571.702 1154.5,571.5C 1275.13,486.997 1400.79,409.997 1531.5,340.5C 1533.18,340.715 1534.18,340.048 1534.5,338.5C 1537.38,336.895 1540.38,335.561 1543.5,334.5C 1546.17,334.5 1548.83,334.5 1551.5,334.5C 1551.56,329.304 1552.23,329.304 1553.5,334.5C 1556.77,335.487 1560.1,335.82 1563.5,335.5C 1563.54,332.119 1563.21,328.786 1562.5,325.5C 1565.95,324.756 1567.62,326.09 1567.5,329.5C 1572.8,328.863 1575.8,325.863 1576.5,320.5C 1578.43,319.939 1580.43,319.773 1582.5,320C 1583.83,318.667 1583.83,317.333 1582.5,316C 1583.82,315.184 1584.49,314.017 1584.5,312.5C 1633.76,286.867 1683.76,262.867 1734.5,240.5C 1736.48,240.843 1737.82,240.176 1738.5,238.5C 1853.46,186.029 1971.46,141.363 2092.5,104.5C 2096.75,105.016 2100.08,103.683 2102.5,100.5C 2214.92,66.1446 2329.26,40.1446 2445.5,22.5C 2448.39,23.0102 2450.72,22.3435 2452.5,20.5C 2526.97,9.78562 2601.63,2.78562 2676.5,-0.5 Z"/></g>
<g><path style="opacity:0.722" fill="#e1532a" d="M 2452.5,20.5 C 2450.72,22.3435 2448.39,23.0102 2445.5,22.5C 2447.71,21.7321 2450.05,21.0654 2452.5,20.5 Z"/></g>
<g><path style="opacity:0.481" fill="#dc5429" d="M 3026.5,24.5 C 3028.95,25.0654 3031.29,25.7321 3033.5,26.5C 3030.61,27.0102 3028.28,26.3435 3026.5,24.5 Z"/></g>
<g><path style="opacity:0.878" fill="#ec4f23" d="M 3247.5,93.5 C 3250.02,94.2638 3252.35,95.2638 3254.5,96.5C 3251.51,96.8337 3249.18,95.8337 3247.5,93.5 Z"/></g>
<g><path style="opacity:0.875" fill="#f34d1d" d="M 2102.5,100.5 C 2100.08,103.683 2096.75,105.016 2092.5,104.5C 2095.68,102.99 2099.02,101.657 2102.5,100.5 Z"/></g>
<g><path style="opacity:0.985" fill="#f74b1b" d="M 3412.5,197.5 C 3417.13,200.458 3421.13,204.124 3424.5,208.5C 3422.83,208.5 3421.17,208.5 3419.5,208.5C 3420.24,205.05 3418.91,203.384 3415.5,203.5C 3414.79,201.328 3413.79,199.328 3412.5,197.5 Z"/></g>
<g><path style="opacity:1" fill="#e55026" d="M 3424.5,208.5 C 3425.71,208.932 3426.71,209.599 3427.5,210.5C 3425.82,210.715 3424.82,210.048 3424.5,208.5 Z"/></g>
<g><path style="opacity:1" fill="#e75124" d="M 1738.5,238.5 C 1737.82,240.176 1736.48,240.843 1734.5,240.5C 1735.67,239.655 1737,238.989 1738.5,238.5 Z"/></g>
<g><path style="opacity:0.918" fill="#ed4f22" d="M 4399.5,261.5 C 4402.02,262.264 4404.35,263.264 4406.5,264.5C 4403.42,264.821 4401.09,263.821 4399.5,261.5 Z"/></g>
<g><path style="opacity:0.995" fill="#fd4a15" d="M 4038.5,264.5 C 4038.74,266.321 4038.74,268.155 4038.5,270C 4037.83,270.667 4037.17,271.333 4036.5,272C 4037.44,274.381 4037.77,276.881 4037.5,279.5C 4028.63,278.92 4019.96,279.92 4011.5,282.5C 4010,283.842 4009.33,285.508 4009.5,287.5C 4008.17,287.5 4006.83,287.5 4005.5,287.5C 4005.81,290.247 4005.48,292.914 4004.5,295.5C 4003.16,293.995 4001.49,293.328 3999.5,293.5C 3999.5,290.167 3999.5,286.833 3999.5,283.5C 3997.5,283.5 3995.5,283.5 3993.5,283.5C 3993.5,284.833 3993.5,286.167 3993.5,287.5C 3992.18,287.33 3991.01,287.663 3990,288.5C 3989.5,290.81 3989.34,293.143 3989.5,295.5C 3986.17,295.5 3982.83,295.5 3979.5,295.5C 3979.5,298.167 3979.5,300.833 3979.5,303.5C 3972.95,302.932 3966.61,303.599 3960.5,305.5C 3959.83,304.167 3959.17,302.833 3958.5,301.5C 3956.01,303.578 3955.01,306.245 3955.5,309.5C 3954.17,309.5 3952.83,309.5 3951.5,309.5C 3952.13,305.309 3950.46,303.475 3946.5,304C 3946.02,307.018 3945.02,309.852 3943.5,312.5C 3942.37,313.262 3941.21,313.929 3940,314.5C 3938.51,313.253 3937.01,313.253 3935.5,314.5C 3936.69,315.429 3938.02,315.762 3939.5,315.5C 3939.5,316.833 3939.5,318.167 3939.5,319.5C 3934.17,319.5 3928.83,319.5 3923.5,319.5C 3923.5,321.5 3923.5,323.5 3923.5,325.5C 3922.17,325.5 3920.83,325.5 3919.5,325.5C 3919.5,323.833 3919.5,322.167 3919.5,320.5C 3917.5,320.5 3915.5,320.5 3913.5,320.5C 3914.18,324.514 3912.84,327.514 3909.5,329.5C 3905.41,327.664 3901.41,325.997 3897.5,324.5C 3942.77,300.363 3989.77,280.363 4038.5,264.5 Z"/></g>
<g><path style="opacity:0.982" fill="#fc4a17" d="M 1584.5,312.5 C 1584.49,314.017 1583.82,315.184 1582.5,316C 1583.83,317.333 1583.83,318.667 1582.5,320C 1580.43,319.773 1578.43,319.939 1576.5,320.5C 1575.8,325.863 1572.8,328.863 1567.5,329.5C 1567.62,326.09 1565.95,324.756 1562.5,325.5C 1563.21,328.786 1563.54,332.119 1563.5,335.5C 1560.1,335.82 1556.77,335.487 1553.5,334.5C 1552.23,329.304 1551.56,329.304 1551.5,334.5C 1548.83,334.5 1546.17,334.5 1543.5,334.5C 1556.97,326.928 1570.64,319.595 1584.5,312.5 Z"/></g>
<g><path style="opacity:0.941" fill="#e15123" d="M 1534.5,338.5 C 1534.18,340.048 1533.18,340.715 1531.5,340.5C 1532.29,339.599 1533.29,338.932 1534.5,338.5 Z"/></g>
<g><path style="opacity:0.99" fill="#f34d1d" d="M 3365.5,390.5 C 3370.28,389.615 3372.62,391.615 3372.5,396.5C 3370.14,394.471 3367.81,392.471 3365.5,390.5 Z"/></g>
<g><path style="opacity:0.923" fill="#ee4e24" d="M 3902.5,434.5 C 3900.35,435.736 3898.02,436.736 3895.5,437.5C 3895.41,436.504 3895.75,435.671 3896.5,435C 3898.47,434.505 3900.47,434.338 3902.5,434.5 Z"/></g>
<g><path style="opacity:0.814" fill="#ec4f21" d="M 3861.5,450.5 C 3859.82,452.008 3857.82,453.008 3855.5,453.5C 3856.69,451.025 3858.69,450.025 3861.5,450.5 Z"/></g>
<g><path style="opacity:0.992" fill="#fefffe" d="M 669.5,1085.5 C 627.167,1085.5 584.833,1085.5 542.5,1085.5C 584.379,946.035 627.545,807.035 672,668.5C 648,703.833 624,739.167 600,774.5C 526.281,878.046 452.781,981.713 379.5,1085.5C 349.833,1085.5 320.167,1085.5 290.5,1085.5C 275.744,946.348 262.577,807.015 251,667.5C 240.203,706.891 229.203,746.225 218,785.5C 187.19,885.427 156.69,985.427 126.5,1085.5C 84.1667,1085.5 41.8333,1085.5 -0.5,1085.5C -0.5,1085.17 -0.5,1084.83 -0.5,1084.5C 61.9967,881.668 124.33,678.668 186.5,475.5C 240.496,474.5 294.496,474.167 348.5,474.5C 361.402,610.185 374.568,745.851 388,881.5C 484.412,746.342 580.579,611.009 676.5,475.5C 736.163,474.5 795.83,474.167 855.5,474.5C 793.5,678.167 731.5,881.833 669.5,1085.5 Z"/></g>
<g><path style="opacity:0.125" fill="#e05525" d="M 3504.5,538.5 C 3506.05,538.821 3506.71,539.821 3506.5,541.5C 3505.6,540.71 3504.93,539.71 3504.5,538.5 Z"/></g>
<g><path style="opacity:0.976" fill="#f14f19" d="M 3612.5,534.5 C 3611.96,536.117 3611.63,537.784 3611.5,539.5C 3608.5,539.167 3607.17,540.5 3607.5,543.5C 3605.78,543.629 3604.12,543.962 3602.5,544.5C 3605.5,540.833 3608.83,537.5 3612.5,534.5 Z"/></g>
<g><path style="opacity:0.998" fill="#fa4b16" d="M 1154.5,571.5 C 1155.36,571.702 1156.36,572.036 1157.5,572.5C 1156.83,573.167 1156.17,573.833 1155.5,574.5C 1156.81,575.912 1157.64,577.579 1158,579.5C 1160.66,577.405 1163.5,577.072 1166.5,578.5C 1147.7,589.231 1128.37,598.898 1108.5,607.5C 1108.26,605.533 1108.59,603.699 1109.5,602C 1124.4,591.586 1139.4,581.42 1154.5,571.5 Z"/></g>
<g><path style="opacity:0.991" fill="#fefffe" d="M 1261.5,1085.5 C 1223.83,1085.5 1186.17,1085.5 1148.5,1085.5C 1142.51,1060.86 1136.51,1036.2 1130.5,1011.5C 1047.5,1010.17 964.5,1010.17 881.5,1011.5C 861.492,1036.2 841.492,1060.86 821.5,1085.5C 778.833,1085.5 736.167,1085.5 693.5,1085.5C 806.174,945.646 919.841,806.479 1034.5,668C 1076.4,667.17 1118.24,667.337 1160,668.5C 1194.31,807.409 1228.14,946.409 1261.5,1085.5 Z M 1073.5,773.5 C 1086.78,826.639 1099.78,879.972 1112.5,933.5C 1056.5,934.667 1000.5,934.833 944.5,934C 987.877,880.713 1030.88,827.213 1073.5,773.5 Z"/></g>
<g><path style="opacity:0.991" fill="#fefffe" d="M 1687.5,1085.5 C 1605.5,1085.5 1523.5,1085.5 1441.5,1085.5C 1414.83,1083.8 1388.83,1078.3 1363.5,1069C 1315.43,1049.59 1288.6,1014.09 1283,962.5C 1281.56,891.169 1300.56,825.836 1340,766.5C 1378.79,714.333 1430.62,683.5 1495.5,674C 1514.71,670.828 1534.04,668.828 1553.5,668C 1629.83,667.333 1706.17,667.333 1782.5,668C 1774.33,693.007 1766.66,718.174 1759.5,743.5C 1693.17,743.333 1626.83,743.5 1560.5,744C 1494.77,749.434 1448.94,782.267 1423,842.5C 1413.21,867 1406.54,892.333 1403,918.5C 1399.43,942.095 1404.09,963.762 1417,983.5C 1430.83,997.665 1447.66,1005.83 1467.5,1008C 1510.81,1009.44 1554.14,1009.94 1597.5,1009.5C 1606.84,977.827 1616.17,946.161 1625.5,914.5C 1584.17,914.5 1542.83,914.5 1501.5,914.5C 1508.63,889.114 1515.96,863.781 1523.5,838.5C 1603.5,838.333 1683.5,838.5 1763.5,839C 1738.06,921.143 1712.73,1003.31 1687.5,1085.5 Z"/></g>
<g><path style="opacity:0.991" fill="#fefffe" d="M 1867.5,1085.5 C 1829.5,1085.5 1791.5,1085.5 1753.5,1085.5C 1796.14,946.252 1838.48,806.918 1880.5,667.5C 1918.5,667.5 1956.5,667.5 1994.5,667.5C 1952.57,806.947 1910.24,946.28 1867.5,1085.5 Z"/></g>
<g><path style="opacity:0.99" fill="#fefffe" d="M 2326.5,1085.5 C 2261.17,1085.5 2195.83,1085.5 2130.5,1085.5C 2101.19,1083.8 2072.85,1077.3 2045.5,1066C 2001.77,1045.73 1977.27,1011.56 1972,963.5C 1970.36,897.048 1986.7,835.381 2021,778.5C 2059.44,719.159 2113.94,684.326 2184.5,674C 2203.71,670.828 2223.04,668.828 2242.5,668C 2313.17,667.333 2383.83,667.333 2454.5,668C 2446.45,693.042 2438.78,718.209 2431.5,743.5C 2370.83,743.333 2310.17,743.5 2249.5,744C 2183.77,749.434 2137.94,782.267 2112,842.5C 2097.36,876.362 2090.69,911.695 2092,948.5C 2096.03,978.202 2112.53,997.036 2141.5,1005C 2149.71,1007.09 2158.04,1008.42 2166.5,1009C 2227.5,1009.5 2288.5,1009.67 2349.5,1009.5C 2342.23,1034.97 2334.57,1060.3 2326.5,1085.5 Z"/></g>
<g><path style="opacity:0.991" fill="#fefffe" d="M 2683.5,1085.5 C 2586.5,1085.5 2489.5,1085.5 2392.5,1085.5C 2399.78,1060.21 2407.45,1035.04 2415.5,1010C 2501.5,1009.67 2587.5,1009.33 2673.5,1009C 2717,1004.84 2738.83,981.005 2739,937.5C 2735.86,927.693 2729.36,921.193 2719.5,918C 2714.59,916.524 2709.59,915.524 2704.5,915C 2654.15,914.932 2603.82,914.265 2553.5,913C 2527.11,911.206 2503.11,902.873 2481.5,888C 2464.94,874.421 2455.77,856.921 2454,835.5C 2452.83,791.346 2465.83,752.013 2493,717.5C 2515.58,693.975 2543.08,679.475 2575.5,674C 2591.35,670.852 2607.35,668.852 2623.5,668C 2720.17,667.167 2816.84,667.333 2913.5,668.5C 2905.83,693.167 2898.17,717.833 2890.5,742.5C 2803.81,743.018 2717.14,743.852 2630.5,745C 2596.24,751.766 2577.57,772.6 2574.5,807.5C 2574.82,820.654 2581.16,829.487 2593.5,834C 2600.33,836.232 2607.33,837.565 2614.5,838C 2660.5,838.333 2706.5,838.667 2752.5,839C 2780.3,839.826 2805.97,847.492 2829.5,862C 2851.25,878.713 2861.58,900.88 2860.5,928.5C 2859.27,968.715 2846.1,1004.38 2821,1035.5C 2797.91,1058.8 2770.08,1073.3 2737.5,1079C 2719.47,1082.17 2701.47,1084.33 2683.5,1085.5 Z"/></g>
<g><path style="opacity:0.992" fill="#fefffe" d="M 3295.5,1085.5 C 3257.5,1085.5 3219.5,1085.5 3181.5,1085.5C 3198.63,1028.79 3215.96,972.119 3233.5,915.5C 3167.17,914.167 3100.83,914.167 3034.5,915.5C 3016.85,972.088 2999.52,1028.75 2982.5,1085.5C 2944.5,1085.5 2906.5,1085.5 2868.5,1085.5C 2910.83,946.167 2953.17,806.833 2995.5,667.5C 3033.5,667.5 3071.5,667.5 3109.5,667.5C 3092.67,724.493 3075.34,781.326 3057.5,838C 3124.07,838.831 3190.57,838.664 3257,837.5C 3274.48,780.9 3291.65,724.233 3308.5,667.5C 3346.5,667.5 3384.5,667.5 3422.5,667.5C 3380.57,806.947 3338.24,946.28 3295.5,1085.5 Z"/></g>
<g><path style="opacity:0.991" fill="#fefffe" d="M 3483.5,1085.5 C 3445.5,1085.5 3407.5,1085.5 3369.5,1085.5C 3411.83,946.167 3454.17,806.833 3496.5,667.5C 3534.5,667.5 3572.5,667.5 3610.5,667.5C 3568.17,806.833 3525.83,946.166 3483.5,1085.5 Z"/></g>
<g><path style="opacity:0.992" fill="#fefffe" d="M 3984.5,1085.5 C 3946.5,1085.5 3908.5,1085.5 3870.5,1085.5C 3831.91,994.903 3793.41,904.237 3755,813.5C 3726.47,903.919 3698.64,994.586 3671.5,1085.5C 3633.5,1085.5 3595.5,1085.5 3557.5,1085.5C 3599.83,946.167 3642.17,806.833 3684.5,667.5C 3722.83,667.5 3761.17,667.5 3799.5,667.5C 3837.17,758.512 3875.67,849.178 3915,939.5C 3942.61,848.845 3970.11,758.178 3997.5,667.5C 4035.5,667.5 4073.5,667.5 4111.5,667.5C 4069.48,806.918 4027.14,946.252 3984.5,1085.5 Z"/></g>
<g><path style="opacity:0.991" fill="#fefffe" d="M 4460.5,1085.5 C 4390.83,1085.5 4321.17,1085.5 4251.5,1085.5C 4216.36,1083.88 4183.02,1075.05 4151.5,1059C 4113.31,1036.49 4092.48,1002.99 4089,958.5C 4088.17,885.331 4108.84,818.998 4151,759.5C 4184.74,717.03 4228.24,689.864 4281.5,678C 4307.2,672.37 4333.2,669.037 4359.5,668C 4432.84,667.167 4506.17,667.333 4579.5,668.5C 4571.83,693.167 4564.17,717.833 4556.5,742.5C 4493.17,743.333 4429.84,743.833 4366.5,744C 4302.52,748.683 4257.19,780.016 4230.5,838C 4323.84,838.167 4417.17,838.667 4510.5,839.5C 4502.83,864.167 4495.17,888.833 4487.5,913.5C 4395.17,914.333 4302.84,914.833 4210.5,915C 4204.26,972.533 4229.93,1003.87 4287.5,1009C 4352.84,1009.17 4418.17,1009.67 4483.5,1010.5C 4475.63,1035.45 4467.96,1060.45 4460.5,1085.5 Z"/></g>
</svg>
